<svg xmlns="http://www.w3.org/2000/svg" width="244.033" height="38.15" viewBox="0 0 244.033 38.15">
  <g id="Group_9" data-name="Group 9" transform="translate(1404 696.226)">
    <g id="Group_7" data-name="Group 7" transform="translate(-1404 -840.226)">
      <g id="Group_280" data-name="Group 280">
        <g id="Codesis" transform="translate(64.205 144)" style="isolation: isolate">
          <g id="Group_6" data-name="Group 6" style="isolation: isolate">
            <path id="Path_3434" data-name="Path 3434" d="M1121.146-809.58a17.331,17.331,0,0,1-9.025-2.256,14.909,14.909,0,0,1-5.846-6.461,22.584,22.584,0,0,1-2.051-10,22.256,22.256,0,0,1,2.051-9.948,14.974,14.974,0,0,1,5.846-6.41,17.338,17.338,0,0,1,9.025-2.256,20.15,20.15,0,0,1,6.923,1.154,14.782,14.782,0,0,1,5.487,3.461l-1.59,3.231a17.652,17.652,0,0,0-5.179-3.231,15.623,15.623,0,0,0-5.589-.974q-6,0-9.307,3.9t-3.307,11.076q0,7.23,3.282,11.153t9.333,3.923a15.6,15.6,0,0,0,5.589-.974,17.625,17.625,0,0,0,5.179-3.23l1.59,3.23a14.786,14.786,0,0,1-5.487,3.461A20.155,20.155,0,0,1,1121.146-809.58Z" transform="translate(-1104.225 847.73)" fill="#fff"/>
            <path id="Path_3435" data-name="Path 3435" d="M1243.286-780.74a12.294,12.294,0,0,1-6.435-1.641,11.079,11.079,0,0,1-4.256-4.641,15.592,15.592,0,0,1-1.513-7.1,15.638,15.638,0,0,1,1.513-7.076,11.053,11.053,0,0,1,4.256-4.666,12.3,12.3,0,0,1,6.435-1.641,12.3,12.3,0,0,1,6.435,1.641,11.064,11.064,0,0,1,4.256,4.666,15.647,15.647,0,0,1,1.513,7.076,15.6,15.6,0,0,1-1.513,7.1,11.09,11.09,0,0,1-4.256,4.641A12.3,12.3,0,0,1,1243.286-780.74Zm0-3.436a7.158,7.158,0,0,0,5.871-2.538q2.077-2.538,2.077-7.41,0-4.769-2.1-7.332a7.145,7.145,0,0,0-5.846-2.564,7.217,7.217,0,0,0-5.871,2.564q-2.128,2.564-2.128,7.332,0,4.873,2.077,7.41A7.216,7.216,0,0,0,1243.286-784.176Z" transform="translate(-1197.239 818.839)" fill="#fff"/>
            <path id="Path_3436" data-name="Path 3436" d="M1365.277-812.245h-4.1v-6.922l.615.564a8.606,8.606,0,0,1-3.333,4.974,10.112,10.112,0,0,1-6,1.743,10.792,10.792,0,0,1-5.974-1.667,11.03,11.03,0,0,1-4.025-4.717,16.508,16.508,0,0,1-1.436-7.1,16.246,16.246,0,0,1,1.41-7.025,10.789,10.789,0,0,1,4-4.615,11.016,11.016,0,0,1,6.025-1.641,10.008,10.008,0,0,1,6,1.769,8.712,8.712,0,0,1,3.333,4.948l-.667.513v-18.562h4.154Zm-12-3.077a7.04,7.04,0,0,0,5.82-2.59q2.077-2.589,2.077-7.358,0-4.717-2.051-7.307a7.025,7.025,0,0,0-5.845-2.589,7.275,7.275,0,0,0-5.923,2.564q-2.128,2.564-2.128,7.23,0,4.769,2.128,7.41A7.18,7.18,0,0,0,1353.278-815.321Z" transform="translate(-1277.85 849.985)" fill="#fff"/>
            <path id="Path_3437" data-name="Path 3437" d="M1479.012-784.176a12.023,12.023,0,0,1-4.333,2.513,16.289,16.289,0,0,1-5.41.923,14.124,14.124,0,0,1-6.9-1.59,10.8,10.8,0,0,1-4.461-4.589,15.282,15.282,0,0,1-1.564-7.153,15.3,15.3,0,0,1,1.538-7.025,11.566,11.566,0,0,1,4.282-4.717,11.812,11.812,0,0,1,6.333-1.692,11.051,11.051,0,0,1,5.9,1.513,9.754,9.754,0,0,1,3.769,4.333,15.988,15.988,0,0,1,1.308,6.769v.769h-19.486v-2.718h17.127l-1.333,1.9q.1-4.511-1.769-6.922a6.5,6.5,0,0,0-5.461-2.41,7.126,7.126,0,0,0-5.871,2.641,11.342,11.342,0,0,0-2.128,7.307q0,5.026,2.23,7.589t6.538,2.564a12.752,12.752,0,0,0,4.333-.743,13.58,13.58,0,0,0,3.974-2.282Z" transform="translate(-1362.408 818.839)" fill="#fff"/>
            <path id="Path_3438" data-name="Path 3438" d="M1571.021-780.74q-6.513,0-10.307-3.333l1.385-3.076a14.591,14.591,0,0,0,4.23,2.333,14.93,14.93,0,0,0,4.846.743,8.077,8.077,0,0,0,4.436-1,3.261,3.261,0,0,0,1.513-2.9,3.071,3.071,0,0,0-1.026-2.435,8.088,8.088,0,0,0-3.384-1.462l-4.359-1.026a9.613,9.613,0,0,1-5-2.564,6.151,6.151,0,0,1-1.769-4.41,6.649,6.649,0,0,1,1.231-3.974,8.17,8.17,0,0,1,3.435-2.692,12.872,12.872,0,0,1,5.231-.974,14.972,14.972,0,0,1,5.127.872,10.873,10.873,0,0,1,4.051,2.513l-1.385,3.025a13.573,13.573,0,0,0-3.769-2.282,11.083,11.083,0,0,0-4.025-.743,7.3,7.3,0,0,0-4.282,1.077,3.4,3.4,0,0,0-1.513,2.923,3.342,3.342,0,0,0,.949,2.512,6.585,6.585,0,0,0,3.051,1.436l4.359,1.077a10.279,10.279,0,0,1,5.359,2.538,6.179,6.179,0,0,1,1.718,4.487,6.3,6.3,0,0,1-2.718,5.333A12.211,12.211,0,0,1,1571.021-780.74Z" transform="translate(-1438.931 818.839)" fill="#fff"/>
            <path id="Path_3439" data-name="Path 3439" d="M1660.468-846.141h5.077v4.717h-5.077Zm.41,36.715v-25.793h4.153v25.793Z" transform="translate(-1512.073 847.167)" fill="#fff"/>
            <path id="Path_3440" data-name="Path 3440" d="M1712.1-780.74q-6.513,0-10.307-3.333l1.385-3.076a14.589,14.589,0,0,0,4.23,2.333,14.93,14.93,0,0,0,4.845.743,8.077,8.077,0,0,0,4.436-1,3.261,3.261,0,0,0,1.513-2.9,3.071,3.071,0,0,0-1.026-2.435,8.091,8.091,0,0,0-3.384-1.462l-4.359-1.026a9.613,9.613,0,0,1-5-2.564,6.151,6.151,0,0,1-1.769-4.41,6.65,6.65,0,0,1,1.231-3.974,8.168,8.168,0,0,1,3.435-2.692,12.871,12.871,0,0,1,5.23-.974,14.976,14.976,0,0,1,5.128.872,10.869,10.869,0,0,1,4.051,2.513l-1.385,3.025a13.565,13.565,0,0,0-3.769-2.282,11.082,11.082,0,0,0-4.025-.743,7.3,7.3,0,0,0-4.282,1.077,3.4,3.4,0,0,0-1.512,2.923,3.341,3.341,0,0,0,.949,2.512,6.584,6.584,0,0,0,3.051,1.436l4.358,1.077a10.279,10.279,0,0,1,5.359,2.538,6.178,6.178,0,0,1,1.718,4.487,6.3,6.3,0,0,1-2.718,5.333A12.211,12.211,0,0,1,1712.1-780.74Z" transform="translate(-1542.372 818.839)" fill="#fff"/>
          </g>
        </g>
        <g id="Group_6264" data-name="Group 6264" transform="translate(0 152.268)">
          <g id="Path_28029" data-name="Path 28029" transform="translate(27.45 2.756)">
            <path id="Path_3441" data-name="Path 3441" d="M975.209-808.573a23.547,23.547,0,0,1,8.048,5.757l8.917,9.715a5.957,5.957,0,0,1,0,7.915,4.844,4.844,0,0,1-7.265,0l-1.332-1.451-7.585-8.265L966.451-805.3l.015-.017A9.98,9.98,0,0,1,975.209-808.573Z" transform="translate(-966.451 808.662)" fill="#f37f00"/>
          </g>
          <g id="Path_28030" data-name="Path 28030" transform="translate(18.342 0.814)">
            <path id="Path_3442" data-name="Path 3442" d="M932.313-813.878a20.409,20.409,0,0,1,17.879-.007,9.615,9.615,0,0,0-8.916,3.7A9.61,9.61,0,0,0,932.313-813.878Z" transform="translate(-932.313 815.943)" fill="#fff"/>
          </g>
          <g id="Path_28031" data-name="Path 28031" transform="translate(0 0)">
            <path id="Path_3443" data-name="Path 3443" d="M882.07-793.836a24.321,24.321,0,0,1-8.313-5.929l-8.643-9.388a6.123,6.123,0,0,1,0-8.153,5.015,5.015,0,0,1,7.505,0l1.376,1.495,7.267,7.894,9.855,10.706-.016.017A10.321,10.321,0,0,1,882.07-793.836Z" transform="translate(-863.559 818.994)" fill="#fff"/>
          </g>
          <g id="Path_28032" data-name="Path 28032" transform="translate(27.409 0.152)">
            <path id="Path_3444" data-name="Path 3444" d="M975.057-793.4a23.549,23.549,0,0,0,8.048-5.757l8.917-9.714a5.957,5.957,0,0,0,0-7.915,4.845,4.845,0,0,0-7.265,0l-1.332,1.451-7.585,8.264L966.3-796.676l.015.017A9.98,9.98,0,0,0,975.057-793.4Z" transform="translate(-966.299 818.424)" fill="#f9bb49"/>
          </g>
          <g id="Path_28034" data-name="Path 28034" transform="translate(18.673 21.898)">
            <path id="Path_3445" data-name="Path 3445" d="M933.554-733.727a22.55,22.55,0,0,0,17.548.006,10.1,10.1,0,0,1-8.751-3.189A10.105,10.105,0,0,1,933.554-733.727Z" transform="translate(-933.554 736.91)" fill="#f37f00"/>
          </g>
          <g id="Path_28035" data-name="Path 28035" transform="translate(0 2.747)">
            <path id="Path_3446" data-name="Path 3446" d="M882.07-808.6a24.319,24.319,0,0,0-8.313,5.929l-8.643,9.388a6.122,6.122,0,0,0,0,8.152,5.015,5.015,0,0,0,7.5,0l1.376-1.495,7.267-7.894,9.856-10.705-.016-.017A10.322,10.322,0,0,0,882.07-808.6Z" transform="translate(-863.559 808.695)" fill="#d32827"/>
          </g>
        </g>
      </g>
    </g>
  </g>
</svg>
