<svg xmlns="http://www.w3.org/2000/svg" width="6" height="446.036" viewBox="0 0 6 446.036">
  <g id="Group_266" data-name="Group 266" transform="translate(-2929 92)" opacity="0.5">
    <rect id="Rectangle_73" data-name="Rectangle 73" width="6" height="446" transform="translate(2929 -92)" fill="#d32827" opacity="0"/>
    <g id="Group_12" data-name="Group 12" transform="translate(-8 0)">
      <path id="Path_3447" data-name="Path 3447" d="M4.327,7.9V4.764A2.559,2.559,0,0,1,7.152,2.081,2.568,2.568,0,0,1,9.989,4.764V7.9a2.582,2.582,0,0,1-2.837,2.718A2.573,2.573,0,0,1,4.327,7.9Zm3.988.083V4.716a1.1,1.1,0,0,0-1.163-1.2A1.1,1.1,0,0,0,6,4.716V7.981a1.1,1.1,0,0,0,1.151,1.2A1.1,1.1,0,0,0,8.315,7.981Z" transform="translate(2932.673 -94.081)" fill="#dadada"/>
      <path id="Path_3458" data-name="Path 3458" d="M6.98,14.327H8.321a.182.182,0,0,1,.2.2v7.906a.182.182,0,0,1-.2.2H7.051a.182.182,0,0,1-.2-.2v-6.47a.066.066,0,0,0-.083-.07l-1.045.213A.174.174,0,0,1,5.5,15.93v-.9A.218.218,0,0,1,5.65,14.8l1.08-.427A.584.584,0,0,1,6.98,14.327Z" transform="translate(2932.673 -94.081)" fill="#929292"/>
      <path id="Path_3459" data-name="Path 3459" d="M6.98,26.49H8.321a.182.182,0,0,1,.2.2V34.6a.181.181,0,0,1-.2.2H7.051a.181.181,0,0,1-.2-.2V28.128a.066.066,0,0,0-.083-.07l-1.045.213a.174.174,0,0,1-.225-.178v-.9a.218.218,0,0,1,.154-.226l1.08-.427A.584.584,0,0,1,6.98,26.49Z" transform="translate(2932.673 -94.081)" fill="#dadada"/>
      <path id="Path_3448" data-name="Path 3448" d="M4.327,44.364V41.23a2.559,2.559,0,0,1,2.825-2.683A2.568,2.568,0,0,1,9.989,41.23v3.134a2.582,2.582,0,0,1-2.837,2.718A2.573,2.573,0,0,1,4.327,44.364Zm3.988.083V41.182a1.1,1.1,0,0,0-1.163-1.2A1.1,1.1,0,0,0,6,41.182v3.265a1.1,1.1,0,0,0,1.151,1.2A1.1,1.1,0,0,0,8.315,44.447Z" transform="translate(2932.673 -94.081)" fill="#dadada"/>
      <path id="Path_3460" data-name="Path 3460" d="M6.98,50.805H8.321a.182.182,0,0,1,.2.2v7.907a.181.181,0,0,1-.2.2H7.051a.181.181,0,0,1-.2-.2V52.443a.067.067,0,0,0-.083-.071l-1.045.214a.174.174,0,0,1-.225-.178v-.9a.218.218,0,0,1,.154-.226l1.08-.428A.6.6,0,0,1,6.98,50.805Z" transform="translate(2932.673 -94.081)" fill="#929292"/>
      <path id="Path_3449" data-name="Path 3449" d="M4.327,68.679V65.544a2.558,2.558,0,0,1,2.825-2.682,2.568,2.568,0,0,1,2.837,2.682v3.135A2.582,2.582,0,0,1,7.152,71.4,2.573,2.573,0,0,1,4.327,68.679Zm3.988.083V65.5a1.1,1.1,0,0,0-1.163-1.2A1.1,1.1,0,0,0,6,65.5v3.265a1.1,1.1,0,0,0,1.151,1.2A1.1,1.1,0,0,0,8.315,68.762Z" transform="translate(2932.673 -94.081)" fill="#929292"/>
      <path id="Path_3450" data-name="Path 3450" d="M4.327,80.842V77.708a2.559,2.559,0,0,1,2.825-2.683,2.568,2.568,0,0,1,2.837,2.683v3.134A2.582,2.582,0,0,1,7.152,83.56,2.573,2.573,0,0,1,4.327,80.842Zm3.988.083V77.661a1.1,1.1,0,0,0-1.163-1.2A1.1,1.1,0,0,0,6,77.661v3.264a1.1,1.1,0,0,0,1.151,1.2A1.1,1.1,0,0,0,8.315,80.925Z" transform="translate(2932.673 -94.081)" fill="#454545"/>
      <path id="Path_3461" data-name="Path 3461" d="M6.98,87.271H8.321a.182.182,0,0,1,.2.2V95.38a.182.182,0,0,1-.2.2H7.051a.182.182,0,0,1-.2-.2V88.91a.066.066,0,0,0-.083-.071l-1.045.213a.174.174,0,0,1-.225-.178v-.9a.216.216,0,0,1,.154-.225l1.08-.428A.6.6,0,0,1,6.98,87.271Z" transform="translate(2932.673 -94.081)" fill="#929292"/>
      <path id="Path_3451" data-name="Path 3451" d="M4.327,105.145v-3.134a2.559,2.559,0,0,1,2.825-2.683,2.568,2.568,0,0,1,2.837,2.683v3.134a2.582,2.582,0,0,1-2.837,2.718A2.573,2.573,0,0,1,4.327,105.145Zm3.988.084v-3.265a1.1,1.1,0,0,0-1.163-1.2A1.1,1.1,0,0,0,6,101.964v3.265a1.1,1.1,0,0,0,1.151,1.2A1.1,1.1,0,0,0,8.315,105.229Z" transform="translate(2932.673 -94.081)" fill="#929292"/>
      <path id="Path_3452" data-name="Path 3452" d="M4.327,117.309v-3.135a2.558,2.558,0,0,1,2.825-2.682,2.567,2.567,0,0,1,2.837,2.682v3.135a2.582,2.582,0,0,1-2.837,2.718A2.573,2.573,0,0,1,4.327,117.309Zm3.988.083v-3.265a1.1,1.1,0,0,0-1.163-1.2A1.1,1.1,0,0,0,6,114.127v3.265a1.1,1.1,0,0,0,1.151,1.2A1.1,1.1,0,0,0,8.315,117.392Z" transform="translate(2932.673 -94.081)" fill="#929292"/>
      <path id="Path_3453" data-name="Path 3453" d="M4.327,129.46v-3.135a2.558,2.558,0,0,1,2.825-2.682,2.568,2.568,0,0,1,2.837,2.682v3.135a2.582,2.582,0,0,1-2.837,2.718A2.573,2.573,0,0,1,4.327,129.46Zm3.988.083v-3.265a1.1,1.1,0,0,0-1.163-1.2A1.1,1.1,0,0,0,6,126.278v3.265a1.1,1.1,0,0,0,1.151,1.2A1.1,1.1,0,0,0,8.315,129.543Z" transform="translate(2932.673 -94.081)" fill="#e3e3e3"/>
      <path id="Path_3462" data-name="Path 3462" d="M6.98,135.9H8.321a.182.182,0,0,1,.2.2v7.906a.182.182,0,0,1-.2.2H7.051a.182.182,0,0,1-.2-.2v-6.47a.067.067,0,0,0-.083-.071l-1.045.214A.174.174,0,0,1,5.5,137.5v-.9a.218.218,0,0,1,.154-.226l1.08-.428A.6.6,0,0,1,6.98,135.9Z" transform="translate(2932.673 -94.081)" fill="#dadada"/>
      <path id="Path_3463" data-name="Path 3463" d="M6.98,148.053H8.321a.182.182,0,0,1,.2.2v7.906a.181.181,0,0,1-.2.2H7.051a.181.181,0,0,1-.2-.2V149.69a.067.067,0,0,0-.083-.071l-1.045.214a.174.174,0,0,1-.225-.178v-.9a.219.219,0,0,1,.154-.226l1.08-.427A.6.6,0,0,1,6.98,148.053Z" transform="translate(2932.673 -94.081)" fill="#e3e3e3"/>
      <path id="Path_3454" data-name="Path 3454" d="M4.327,165.938V162.8a2.559,2.559,0,0,1,2.825-2.683A2.568,2.568,0,0,1,9.989,162.8v3.134a2.582,2.582,0,0,1-2.837,2.718A2.573,2.573,0,0,1,4.327,165.938Zm3.988.083v-3.265a1.1,1.1,0,0,0-1.163-1.2A1.1,1.1,0,0,0,6,162.756v3.265a1.1,1.1,0,0,0,1.151,1.2A1.1,1.1,0,0,0,8.315,166.021Z" transform="translate(2932.673 -94.081)" fill="#dadada"/>
      <path id="Path_3464" data-name="Path 3464" d="M6.98,172.367H8.321a.182.182,0,0,1,.2.2v7.907a.181.181,0,0,1-.2.2H7.051a.181.181,0,0,1-.2-.2v-6.471a.066.066,0,0,0-.083-.07l-1.045.213a.174.174,0,0,1-.225-.178v-.9a.218.218,0,0,1,.154-.226l1.08-.427A.584.584,0,0,1,6.98,172.367Z" transform="translate(2932.673 -94.081)" fill="#929292"/>
      <path id="Path_3455" data-name="Path 3455" d="M4.327,190.241v-3.135a2.558,2.558,0,0,1,2.825-2.682,2.568,2.568,0,0,1,2.837,2.682v3.135a2.582,2.582,0,0,1-2.837,2.718A2.573,2.573,0,0,1,4.327,190.241Zm3.988.083V187.06a1.1,1.1,0,0,0-1.163-1.2A1.1,1.1,0,0,0,6,187.06v3.264a1.1,1.1,0,0,0,1.151,1.2A1.1,1.1,0,0,0,8.315,190.324Z" transform="translate(2932.673 -94.081)" fill="#e3e3e3"/>
      <path id="Path_3465" data-name="Path 3465" d="M6.98,196.682H8.321a.182.182,0,0,1,.2.2v7.906a.182.182,0,0,1-.2.2H7.051a.182.182,0,0,1-.2-.2v-6.47a.067.067,0,0,0-.083-.071l-1.045.214a.175.175,0,0,1-.225-.179v-.9a.217.217,0,0,1,.154-.226l1.08-.427A.584.584,0,0,1,6.98,196.682Z" transform="translate(2932.673 -94.081)" fill="#929292"/>
      <path id="Path_3466" data-name="Path 3466" d="M6.98,208.833H8.321a.182.182,0,0,1,.2.2v7.906a.182.182,0,0,1-.2.2H7.051a.182.182,0,0,1-.2-.2v-6.469a.067.067,0,0,0-.083-.072l-1.045.214a.174.174,0,0,1-.225-.179v-.9a.216.216,0,0,1,.154-.225l1.08-.428A.6.6,0,0,1,6.98,208.833Z" transform="translate(2932.673 -94.081)" fill="#929292"/>
      <path id="Path_3467" data-name="Path 3467" d="M6.98,221H8.321a.182.182,0,0,1,.2.2V229.1a.182.182,0,0,1-.2.2H7.051a.182.182,0,0,1-.2-.2v-6.47a.067.067,0,0,0-.083-.071l-1.045.213A.173.173,0,0,1,5.5,222.6v-.9a.218.218,0,0,1,.154-.225l1.08-.428A.6.6,0,0,1,6.98,221Z" transform="translate(2932.673 -94.081)" fill="#929292"/>
      <path id="Path_3456" data-name="Path 3456" d="M4.327,238.87v-3.134a2.558,2.558,0,0,1,2.825-2.682,2.567,2.567,0,0,1,2.837,2.682v3.134a2.582,2.582,0,0,1-2.837,2.719A2.573,2.573,0,0,1,4.327,238.87Zm3.988.083v-3.264a1.1,1.1,0,0,0-1.163-1.2A1.1,1.1,0,0,0,6,235.689v3.264a1.1,1.1,0,0,0,1.151,1.2A1.1,1.1,0,0,0,8.315,238.953Z" transform="translate(2932.673 -94.081)" fill="#dadada"/>
      <path id="Path_3468" data-name="Path 3468" d="M6.98,245.311H8.321a.182.182,0,0,1,.2.2v7.906a.182.182,0,0,1-.2.2H7.051a.182.182,0,0,1-.2-.2v-6.47a.066.066,0,0,0-.083-.071l-1.045.214a.175.175,0,0,1-.225-.179v-.9a.217.217,0,0,1,.154-.226l1.08-.428A.6.6,0,0,1,6.98,245.311Z" transform="translate(2932.673 -94.081)" fill="#929292"/>
      <path id="Path_3457" data-name="Path 3457" d="M4.327,263.174v-3.135a2.559,2.559,0,0,1,2.825-2.683,2.568,2.568,0,0,1,2.837,2.683v3.135a2.582,2.582,0,0,1-2.837,2.718A2.573,2.573,0,0,1,4.327,263.174Zm3.988.083v-3.265a1.1,1.1,0,0,0-1.163-1.2A1.1,1.1,0,0,0,6,259.992v3.265a1.1,1.1,0,0,0,1.151,1.2A1.1,1.1,0,0,0,8.315,263.257Z" transform="translate(2932.673 -94.081)" fill="#454545"/>
      <path id="Path_3469" data-name="Path 3469" d="M4.327,275.337V272.2a2.558,2.558,0,0,1,2.825-2.682A2.567,2.567,0,0,1,9.989,272.2v3.134a2.582,2.582,0,0,1-2.837,2.719A2.573,2.573,0,0,1,4.327,275.337Zm3.988.083v-3.265a1.1,1.1,0,0,0-1.163-1.2A1.1,1.1,0,0,0,6,272.155v3.265a1.1,1.1,0,0,0,1.151,1.2A1.1,1.1,0,0,0,8.315,275.42Z" transform="translate(2932.673 -94.081)" fill="#929292"/>
      <path id="Path_3470" data-name="Path 3470" d="M6.98,281.778H8.321a.182.182,0,0,1,.2.2v7.907a.181.181,0,0,1-.2.2H7.051a.181.181,0,0,1-.2-.2v-6.471a.067.067,0,0,0-.083-.071l-1.045.214a.174.174,0,0,1-.225-.178v-.9a.218.218,0,0,1,.154-.225l1.08-.428A.6.6,0,0,1,6.98,281.778Z" transform="translate(2932.673 -94.081)" fill="#929292"/>
      <path id="Path_3471" data-name="Path 3471" d="M4.327,299.652v-3.134a2.559,2.559,0,0,1,2.825-2.683,2.568,2.568,0,0,1,2.837,2.683v3.134a2.582,2.582,0,0,1-2.837,2.718A2.573,2.573,0,0,1,4.327,299.652Zm3.988.083v-3.264a1.1,1.1,0,0,0-1.163-1.2A1.1,1.1,0,0,0,6,296.471v3.264a1.1,1.1,0,0,0,1.151,1.2A1.1,1.1,0,0,0,8.315,299.735Z" transform="translate(2932.673 -94.081)" fill="#dadada"/>
      <path id="Path_3472" data-name="Path 3472" d="M4.327,311.815v-3.134A2.559,2.559,0,0,1,7.152,306a2.568,2.568,0,0,1,2.837,2.683v3.134a2.582,2.582,0,0,1-2.837,2.718A2.573,2.573,0,0,1,4.327,311.815Zm3.988.083v-3.264a1.1,1.1,0,0,0-1.163-1.2A1.1,1.1,0,0,0,6,308.634V311.9a1.1,1.1,0,0,0,1.151,1.2A1.1,1.1,0,0,0,8.315,311.9Z" transform="translate(2932.673 -94.081)" fill="#929292"/>
      <path id="Path_3473" data-name="Path 3473" d="M4.327,323.967v-3.134a2.559,2.559,0,0,1,2.825-2.683,2.568,2.568,0,0,1,2.837,2.683v3.134a2.582,2.582,0,0,1-2.837,2.718A2.573,2.573,0,0,1,4.327,323.967Zm3.988.083v-3.265a1.1,1.1,0,0,0-1.163-1.2A1.1,1.1,0,0,0,6,320.785v3.265a1.1,1.1,0,0,0,1.151,1.2A1.1,1.1,0,0,0,8.315,324.05Z" transform="translate(2932.673 -94.081)" fill="#454545"/>
      <path id="Path_3474" data-name="Path 3474" d="M6.98,330.407H8.321a.182.182,0,0,1,.2.2v7.907a.182.182,0,0,1-.2.2H7.051a.182.182,0,0,1-.2-.2v-6.47a.066.066,0,0,0-.083-.071l-1.045.214a.175.175,0,0,1-.225-.179v-.9a.216.216,0,0,1,.154-.225l1.08-.428A.6.6,0,0,1,6.98,330.407Z" transform="translate(2932.673 -94.081)" fill="#454545"/>
      <path id="Path_3475" data-name="Path 3475" d="M4.327,348.281v-3.134a2.559,2.559,0,0,1,2.825-2.683,2.568,2.568,0,0,1,2.837,2.683v3.134A2.582,2.582,0,0,1,7.152,351,2.573,2.573,0,0,1,4.327,348.281Zm3.988.083V345.1a1.1,1.1,0,0,0-1.163-1.2A1.1,1.1,0,0,0,6,345.1v3.264a1.1,1.1,0,0,0,1.151,1.2A1.1,1.1,0,0,0,8.315,348.364Z" transform="translate(2932.673 -94.081)" fill="#929292"/>
      <path id="Path_3476" data-name="Path 3476" d="M6.98,354.711H8.321a.182.182,0,0,1,.2.2v7.906a.182.182,0,0,1-.2.2H7.051a.182.182,0,0,1-.2-.2v-6.47a.068.068,0,0,0-.083-.072l-1.045.214a.173.173,0,0,1-.225-.177v-.9a.22.22,0,0,1,.154-.226l1.08-.427A.6.6,0,0,1,6.98,354.711Z" transform="translate(2932.673 -94.081)" fill="#dadada"/>
      <path id="Path_3477" data-name="Path 3477" d="M4.327,372.6v-3.135a2.559,2.559,0,0,1,2.825-2.683,2.568,2.568,0,0,1,2.837,2.683V372.6a2.582,2.582,0,0,1-2.837,2.718A2.573,2.573,0,0,1,4.327,372.6Zm3.988.083v-3.265a1.1,1.1,0,0,0-1.163-1.2A1.1,1.1,0,0,0,6,369.415v3.265a1.1,1.1,0,0,0,1.151,1.2A1.1,1.1,0,0,0,8.315,372.68Z" transform="translate(2932.673 -94.081)" fill="#dadada"/>
      <path id="Path_3478" data-name="Path 3478" d="M6.98,379.025H8.321a.182.182,0,0,1,.2.2v7.906a.182.182,0,0,1-.2.2H7.051a.182.182,0,0,1-.2-.2v-6.47a.066.066,0,0,0-.083-.071l-1.045.214a.175.175,0,0,1-.225-.179v-.9a.217.217,0,0,1,.154-.226l1.08-.428A.6.6,0,0,1,6.98,379.025Z" transform="translate(2932.673 -94.081)" fill="#e3e3e3"/>
      <path id="Path_3479" data-name="Path 3479" d="M4.327,396.911v-3.134A2.558,2.558,0,0,1,7.152,391.1a2.567,2.567,0,0,1,2.837,2.682v3.134a2.582,2.582,0,0,1-2.837,2.719A2.573,2.573,0,0,1,4.327,396.911Zm3.988.083v-3.265a1.1,1.1,0,0,0-1.163-1.2A1.1,1.1,0,0,0,6,393.729v3.265a1.1,1.1,0,0,0,1.151,1.2A1.1,1.1,0,0,0,8.315,396.994Z" transform="translate(2932.673 -94.081)" fill="#929292"/>
      <path id="Path_3480" data-name="Path 3480" d="M6.98,403.341H8.321a.182.182,0,0,1,.2.2v7.906a.181.181,0,0,1-.2.2H7.051a.181.181,0,0,1-.2-.2v-6.471a.067.067,0,0,0-.083-.071l-1.045.214a.173.173,0,0,1-.225-.178v-.9a.22.22,0,0,1,.154-.226l1.08-.427A.6.6,0,0,1,6.98,403.341Z" transform="translate(2932.673 -94.081)" fill="#dadada"/>
      <path id="Path_3481" data-name="Path 3481" d="M6.98,415.5H8.321a.182.182,0,0,1,.2.2v7.906a.182.182,0,0,1-.2.2H7.051a.182.182,0,0,1-.2-.2v-6.469a.067.067,0,0,0-.083-.072l-1.045.214a.174.174,0,0,1-.225-.179v-.9a.218.218,0,0,1,.154-.226l1.08-.427A.6.6,0,0,1,6.98,415.5Z" transform="translate(2932.673 -94.081)" fill="#e3e3e3"/>
      <path id="Path_3482" data-name="Path 3482" d="M4.327,433.378v-3.135a2.559,2.559,0,0,1,2.825-2.683,2.568,2.568,0,0,1,2.837,2.683v3.135A2.582,2.582,0,0,1,7.152,436.1,2.573,2.573,0,0,1,4.327,433.378Zm3.988.083V430.2A1.1,1.1,0,0,0,7.152,429,1.1,1.1,0,0,0,6,430.2v3.265a1.1,1.1,0,0,0,1.151,1.2A1.1,1.1,0,0,0,8.315,433.461Z" transform="translate(2932.673 -94.081)" fill="#929292"/>
      <path id="Path_3483" data-name="Path 3483" d="M6.98,439.807H8.321a.182.182,0,0,1,.2.2v7.906a.182.182,0,0,1-.2.2H7.051a.182.182,0,0,1-.2-.2v-6.47a.066.066,0,0,0-.083-.071l-1.045.214a.175.175,0,0,1-.225-.179v-.9a.217.217,0,0,1,.154-.226l1.08-.428A.6.6,0,0,1,6.98,439.807Z" transform="translate(2932.673 -94.081)" fill="#454545"/>
    </g>
  </g>
</svg>
