<svg xmlns="http://www.w3.org/2000/svg" width="154.545" height="32.787" viewBox="0 0 154.545 32.787">
  <g id="Codesis" style="isolation: isolate">
    <g id="Group_6" data-name="Group 6" style="isolation: isolate">
      <path id="Path_3434" data-name="Path 3434" d="M1118.767-814.828a14.9,14.9,0,0,1-7.756-1.939,12.813,12.813,0,0,1-5.024-5.553,19.41,19.41,0,0,1-1.763-8.593,19.128,19.128,0,0,1,1.763-8.549,12.869,12.869,0,0,1,5.024-5.508,14.9,14.9,0,0,1,7.756-1.939,17.314,17.314,0,0,1,5.949.992,12.7,12.7,0,0,1,4.715,2.975l-1.366,2.776a15.167,15.167,0,0,0-4.451-2.776,13.423,13.423,0,0,0-4.8-.837,9.918,9.918,0,0,0-8,3.349q-2.843,3.349-2.843,9.519,0,6.213,2.82,9.585t8.021,3.371a13.41,13.41,0,0,0,4.8-.837,15.145,15.145,0,0,0,4.451-2.776l1.366,2.776a12.708,12.708,0,0,1-4.715,2.975A17.32,17.32,0,0,1,1118.767-814.828Z" transform="translate(-1104.225 847.615)" fill="#fff"/>
      <path id="Path_3435" data-name="Path 3435" d="M1241.57-784.5a10.565,10.565,0,0,1-5.531-1.41,9.521,9.521,0,0,1-3.657-3.988,13.4,13.4,0,0,1-1.3-6.1,13.438,13.438,0,0,1,1.3-6.082,9.5,9.5,0,0,1,3.657-4.01,10.572,10.572,0,0,1,5.531-1.41,10.572,10.572,0,0,1,5.531,1.41,9.507,9.507,0,0,1,3.658,4.01,13.448,13.448,0,0,1,1.3,6.082,13.409,13.409,0,0,1-1.3,6.1,9.529,9.529,0,0,1-3.658,3.988A10.566,10.566,0,0,1,1241.57-784.5Zm0-2.953a6.151,6.151,0,0,0,5.046-2.182q1.785-2.181,1.785-6.368a9.7,9.7,0,0,0-1.807-6.3,6.141,6.141,0,0,0-5.024-2.2,6.2,6.2,0,0,0-5.046,2.2,9.62,9.62,0,0,0-1.829,6.3q0,4.187,1.785,6.368A6.2,6.2,0,0,0,1241.57-787.456Z" transform="translate(-1201.997 817.246)" fill="#fff"/>
      <path id="Path_3436" data-name="Path 3436" d="M1361.867-817.551h-3.526V-823.5l.529.485a7.4,7.4,0,0,1-2.864,4.275,8.69,8.69,0,0,1-5.156,1.5,9.276,9.276,0,0,1-5.134-1.432,9.481,9.481,0,0,1-3.459-4.054,14.187,14.187,0,0,1-1.234-6.1,13.963,13.963,0,0,1,1.212-6.037,9.273,9.273,0,0,1,3.437-3.966,9.468,9.468,0,0,1,5.178-1.41,8.6,8.6,0,0,1,5.156,1.52,7.486,7.486,0,0,1,2.864,4.253l-.573.441v-15.953h3.57Zm-10.312-2.644a6.05,6.05,0,0,0,5-2.226,9.881,9.881,0,0,0,1.785-6.324,9.894,9.894,0,0,0-1.763-6.28,6.037,6.037,0,0,0-5.024-2.225,6.252,6.252,0,0,0-5.09,2.2,9.469,9.469,0,0,0-1.829,6.213,9.9,9.9,0,0,0,1.829,6.368A6.171,6.171,0,0,0,1351.555-820.195Z" transform="translate(-1286.732 849.985)" fill="#fff"/>
      <path id="Path_3437" data-name="Path 3437" d="M1475.825-787.456a10.331,10.331,0,0,1-3.724,2.159,14,14,0,0,1-4.649.793,12.139,12.139,0,0,1-5.927-1.366,9.281,9.281,0,0,1-3.834-3.944,13.132,13.132,0,0,1-1.344-6.147,13.149,13.149,0,0,1,1.322-6.037,9.941,9.941,0,0,1,3.68-4.054,10.151,10.151,0,0,1,5.442-1.454,9.5,9.5,0,0,1,5.068,1.3,8.383,8.383,0,0,1,3.239,3.724,13.74,13.74,0,0,1,1.124,5.817v.661h-16.746v-2.336h14.719l-1.146,1.631a9.182,9.182,0,0,0-1.52-5.949,5.584,5.584,0,0,0-4.693-2.071,6.124,6.124,0,0,0-5.046,2.27,9.747,9.747,0,0,0-1.829,6.28q0,4.319,1.917,6.522a7.044,7.044,0,0,0,5.619,2.2,10.96,10.96,0,0,0,3.724-.639,11.67,11.67,0,0,0,3.415-1.961Z" transform="translate(-1375.615 817.246)" fill="#fff"/>
      <path id="Path_3438" data-name="Path 3438" d="M1569.572-784.5q-5.6,0-8.858-2.865l1.19-2.644a12.538,12.538,0,0,0,3.636,2,12.83,12.83,0,0,0,4.165.639,6.943,6.943,0,0,0,3.812-.859,2.8,2.8,0,0,0,1.3-2.49,2.64,2.64,0,0,0-.881-2.093,6.954,6.954,0,0,0-2.908-1.256l-3.746-.881a8.261,8.261,0,0,1-4.3-2.2,5.286,5.286,0,0,1-1.521-3.79,5.716,5.716,0,0,1,1.058-3.416,7.024,7.024,0,0,1,2.952-2.313,11.062,11.062,0,0,1,4.5-.837,12.864,12.864,0,0,1,4.407.749,9.341,9.341,0,0,1,3.482,2.16l-1.19,2.6a11.661,11.661,0,0,0-3.239-1.961,9.523,9.523,0,0,0-3.459-.639,6.276,6.276,0,0,0-3.68.925,2.925,2.925,0,0,0-1.3,2.512A2.872,2.872,0,0,0,1565.8-799a5.661,5.661,0,0,0,2.622,1.234l3.746.925a8.835,8.835,0,0,1,4.605,2.182,5.311,5.311,0,0,1,1.476,3.856,5.411,5.411,0,0,1-2.336,4.583A10.494,10.494,0,0,1,1569.572-784.5Z" transform="translate(-1456.053 817.246)" fill="#fff"/>
      <path id="Path_3439" data-name="Path 3439" d="M1660.468-846.141h4.363v4.054h-4.363Zm.352,31.553v-22.166h3.569v22.166Z" transform="translate(-1532.937 847.022)" fill="#fff"/>
      <path id="Path_3440" data-name="Path 3440" d="M1710.649-784.5q-5.6,0-8.858-2.865l1.19-2.644a12.538,12.538,0,0,0,3.635,2,12.831,12.831,0,0,0,4.164.639,6.942,6.942,0,0,0,3.812-.859,2.8,2.8,0,0,0,1.3-2.49,2.639,2.639,0,0,0-.881-2.093,6.955,6.955,0,0,0-2.908-1.256l-3.746-.881a8.262,8.262,0,0,1-4.3-2.2,5.286,5.286,0,0,1-1.52-3.79,5.715,5.715,0,0,1,1.058-3.416,7.021,7.021,0,0,1,2.953-2.313,11.06,11.06,0,0,1,4.495-.837,12.867,12.867,0,0,1,4.407.749,9.34,9.34,0,0,1,3.481,2.16l-1.19,2.6a11.659,11.659,0,0,0-3.239-1.961,9.523,9.523,0,0,0-3.459-.639,6.277,6.277,0,0,0-3.68.925,2.925,2.925,0,0,0-1.3,2.512,2.872,2.872,0,0,0,.815,2.159,5.66,5.66,0,0,0,2.622,1.234l3.746.925a8.834,8.834,0,0,1,4.6,2.182,5.309,5.309,0,0,1,1.476,3.856,5.411,5.411,0,0,1-2.335,4.583A10.494,10.494,0,0,1,1710.649-784.5Z" transform="translate(-1564.786 817.246)" fill="#fff"/>
    </g>
  </g>
</svg>
