<svg id="Group_6264" data-name="Group 6264" xmlns="http://www.w3.org/2000/svg" width="46.99" height="24.061" viewBox="0 0 46.99 24.061">
  <g id="Path_28029" data-name="Path 28029" transform="translate(23.59 2.369)">
    <path id="Path_3441" data-name="Path 3441" d="M973.978-808.585a20.236,20.236,0,0,1,6.917,4.948l7.663,8.349a5.119,5.119,0,0,1,0,6.8,4.163,4.163,0,0,1-6.244,0l-1.145-1.247-6.519-7.1-8.2-8.933.013-.014A8.576,8.576,0,0,1,973.978-808.585Z" transform="translate(-966.451 808.662)" fill="#fff" opacity="0.85"/>
  </g>
  <g id="Path_28030" data-name="Path 28030" transform="translate(15.763 0.699)">
    <path id="Path_3442" data-name="Path 3442" d="M932.313-814.168a17.539,17.539,0,0,1,15.365-.006,8.263,8.263,0,0,0-7.663,3.179A8.258,8.258,0,0,0,932.313-814.168Z" transform="translate(-932.313 815.943)" fill="#fff"/>
  </g>
  <g id="Path_28031" data-name="Path 28031" transform="translate(0 0)">
    <path id="Path_3443" data-name="Path 3443" d="M879.467-797.373a20.9,20.9,0,0,1-7.145-5.1l-7.428-8.068a5.262,5.262,0,0,1,0-7.007,4.31,4.31,0,0,1,6.45,0l1.182,1.285,6.245,6.784,8.47,9.2-.013.014A8.87,8.87,0,0,1,879.467-797.373Z" transform="translate(-863.559 818.994)" fill="#fff"/>
  </g>
  <g id="Path_28032" data-name="Path 28032" transform="translate(23.555 0.131)">
    <path id="Path_3444" data-name="Path 3444" d="M973.826-796.917a20.239,20.239,0,0,0,6.917-4.948l7.663-8.348a5.12,5.12,0,0,0,0-6.8,4.163,4.163,0,0,0-6.244,0l-1.144,1.247-6.519,7.1-8.2,8.933.013.014A8.577,8.577,0,0,0,973.826-796.917Z" transform="translate(-966.299 818.424)" fill="#fff"/>
  </g>
  <g id="Path_28034" data-name="Path 28034" transform="translate(16.048 18.82)">
    <path id="Path_3445" data-name="Path 3445" d="M933.554-734.175a19.379,19.379,0,0,0,15.08.005,8.684,8.684,0,0,1-7.521-2.74A8.685,8.685,0,0,1,933.554-734.175Z" transform="translate(-933.554 736.91)" fill="#fff"/>
  </g>
  <g id="Path_28035" data-name="Path 28035" transform="translate(0 2.361)">
    <path id="Path_3446" data-name="Path 3446" d="M879.467-808.616a20.9,20.9,0,0,0-7.145,5.1l-7.428,8.068a5.261,5.261,0,0,0,0,7.006,4.309,4.309,0,0,0,6.45,0l1.182-1.285,6.245-6.784,8.47-9.2-.013-.015A8.871,8.871,0,0,0,879.467-808.616Z" transform="translate(-863.559 808.695)" fill="#fff" opacity="0.91"/>
  </g>
</svg>
