<svg xmlns="http://www.w3.org/2000/svg" width="38" height="38" viewBox="0 0 38 38">
  <g id="SM_Instagram" opacity="0.5">
    <path id="Path_3484" data-name="Path 3484" d="M58.584,54.779a3.772,3.772,0,1,1-1.1-2.674A3.772,3.772,0,0,1,58.584,54.779Zm0,0" transform="translate(-35.806 -35.778)" fill="#fff"/>
    <path id="Path_3485" data-name="Path 3485" d="M52.3,36.829a3.5,3.5,0,0,0-.848-1.314,3.463,3.463,0,0,0-1.314-.848,6.263,6.263,0,0,0-2.1-.388c-1.193-.056-1.551-.069-4.574-.069s-3.381,0-4.574.069a6.263,6.263,0,0,0-2.1.388,3.463,3.463,0,0,0-1.314.848,3.5,3.5,0,0,0-.848,1.314,6.263,6.263,0,0,0-.388,2.1c-.056,1.193-.069,1.551-.069,4.574s0,3.381.069,4.574a6.263,6.263,0,0,0,.388,2.1,3.762,3.762,0,0,0,2.149,2.149,6.325,6.325,0,0,0,2.1.391c1.193.053,1.551.066,4.574.066s3.381,0,4.574-.066a6.325,6.325,0,0,0,2.1-.391,3.762,3.762,0,0,0,2.149-2.149,6.263,6.263,0,0,0,.388-2.1c.056-1.193.066-1.551.066-4.574s0-3.381-.066-4.574a6.263,6.263,0,0,0-.388-2.1ZM43.479,49.315a5.813,5.813,0,1,1,5.813-5.809,5.813,5.813,0,0,1-5.813,5.809Zm6.043-10.5a1.353,1.353,0,1,0-.01,0Zm0,0" transform="translate(-24.477 -24.505)" fill="#fff"/>
    <path id="Path_3486" data-name="Path 3486" d="M21.5,2.5a19,19,0,1,0,19,19,19,19,0,0,0-19-19ZM32.346,26a7.961,7.961,0,0,1-.51,2.651,5.57,5.57,0,0,1-3.189,3.189,7.958,7.958,0,0,1-2.647.51c-1.165.051-1.536.063-4.5.063s-3.334,0-4.5-.063a7.961,7.961,0,0,1-2.65-.51,5.57,5.57,0,0,1-3.189-3.189A7.967,7.967,0,0,1,10.657,26c-.054-1.165-.067-1.536-.067-4.5s0-3.334.063-4.5a7.961,7.961,0,0,1,.51-2.651,5.57,5.57,0,0,1,3.189-3.189A7.961,7.961,0,0,1,17,10.654c1.162-.051,1.533-.063,4.5-.063s3.335,0,4.5.066a7.891,7.891,0,0,1,2.65.507,5.57,5.57,0,0,1,3.189,3.189,7.961,7.961,0,0,1,.51,2.65c.051,1.162.063,1.533.063,4.5S32.409,24.834,32.346,26Zm0,0" transform="translate(-2.5 -2.5)" fill="#fff"/>
  </g>
</svg>
