<svg xmlns="http://www.w3.org/2000/svg" width="38" height="38" viewBox="0 0 38 38">
  <path id="SM_LinkedIn" d="M21.5,2.5a19,19,0,1,0,19,19,19,19,0,0,0-19-19ZM15.977,31.222H11.351V17.288h4.627ZM13.666,15.388h-.032a2.4,2.4,0,0,1-2.556-2.407,2.43,2.43,0,0,1,2.619-2.4,2.413,2.413,0,1,1-.032,4.81Zm19,15.833h-4.63V23.774c0-1.872-.668-3.148-2.343-3.148a2.533,2.533,0,0,0-2.375,1.694,3.208,3.208,0,0,0-.152,1.127v7.774H18.539s.06-12.616,0-13.933h4.627v1.97a4.6,4.6,0,0,1,4.171-2.3c3.046,0,5.329,1.989,5.329,6.264Zm0,0" transform="translate(-2.5 -2.5)" fill="#fff" opacity="0.5"/>
</svg>
