<svg xmlns="http://www.w3.org/2000/svg" width="38" height="38" viewBox="0 0 38 38">
  <path id="SM_Twitter" d="M21.5,2.5a19,19,0,1,0,19,19,19,19,0,0,0-19-19Zm8.677,14.814v.564A12.326,12.326,0,0,1,17.77,30.287h0a12.35,12.35,0,0,1-6.685-1.96,8.819,8.819,0,0,0,6.457-1.808,4.36,4.36,0,0,1-4.072-3.027,4.316,4.316,0,0,0,1.97-.076,4.361,4.361,0,0,1-3.483-4.275v-.054a4.335,4.335,0,0,0,1.976.545,4.37,4.37,0,0,1-1.352-5.823,12.366,12.366,0,0,0,8.984,4.557,4.294,4.294,0,0,1-.114-.994,4.364,4.364,0,0,1,7.546-3,8.667,8.667,0,0,0,2.768-1.058,4.379,4.379,0,0,1-1.9,2.413,8.613,8.613,0,0,0,2.5-.687A8.867,8.867,0,0,1,30.193,17.3Zm0,0" transform="translate(-2.5 -2.5)" fill="#fff" opacity="0.5"/>
</svg>
